<svg id="visual" viewBox="0 0 960 540" width="960" height="540" xmlns="http://www.w3.org/2000/svg" xmlns:xlink="http://www.w3.org/1999/xlink" version="1.1"><rect x="0" y="0" width="960" height="540" fill="#072b60"></rect><path d="M0 363L32 366.2C64 369.3 128 375.7 192 374.2C256 372.7 320 363.3 384 362.5C448 361.7 512 369.3 576 370.3C640 371.3 704 365.7 768 364C832 362.3 896 364.7 928 365.8L960 367L960 541L928 541C896 541 832 541 768 541C704 541 640 541 576 541C512 541 448 541 384 541C320 541 256 541 192 541C128 541 64 541 32 541L0 541Z" fill="#69c5fa"></path><path d="M0 391L32 389.2C64 387.3 128 383.7 192 384.5C256 385.3 320 390.7 384 391.7C448 392.7 512 389.3 576 387.2C640 385 704 384 768 383.2C832 382.3 896 381.7 928 381.3L960 381L960 541L928 541C896 541 832 541 768 541C704 541 640 541 576 541C512 541 448 541 384 541C320 541 256 541 192 541C128 541 64 541 32 541L0 541Z" fill="#5abbf7"></path><path d="M0 409L32 408.3C64 407.7 128 406.3 192 406.7C256 407 320 409 384 406.2C448 403.3 512 395.7 576 394.3C640 393 704 398 768 398.8C832 399.7 896 396.3 928 394.7L960 393L960 541L928 541C896 541 832 541 768 541C704 541 640 541 576 541C512 541 448 541 384 541C320 541 256 541 192 541C128 541 64 541 32 541L0 541Z" fill="#4bb2f4"></path><path d="M0 423L32 421.7C64 420.3 128 417.7 192 413C256 408.3 320 401.7 384 401C448 400.3 512 405.7 576 409C640 412.3 704 413.7 768 414.7C832 415.7 896 416.3 928 416.7L960 417L960 541L928 541C896 541 832 541 768 541C704 541 640 541 576 541C512 541 448 541 384 541C320 541 256 541 192 541C128 541 64 541 32 541L0 541Z" fill="#3da8f1"></path><path d="M0 422L32 423.2C64 424.3 128 426.7 192 425.7C256 424.7 320 420.3 384 421.2C448 422 512 428 576 430.3C640 432.7 704 431.3 768 429.5C832 427.7 896 425.3 928 424.2L960 423L960 541L928 541C896 541 832 541 768 541C704 541 640 541 576 541C512 541 448 541 384 541C320 541 256 541 192 541C128 541 64 541 32 541L0 541Z" fill="#2e9eed"></path><path d="M0 426L32 428.2C64 430.3 128 434.7 192 438.2C256 441.7 320 444.3 384 444.5C448 444.7 512 442.3 576 441.8C640 441.3 704 442.7 768 441.3C832 440 896 436 928 434L960 432L960 541L928 541C896 541 832 541 768 541C704 541 640 541 576 541C512 541 448 541 384 541C320 541 256 541 192 541C128 541 64 541 32 541L0 541Z" fill="#2094e9"></path><path d="M0 451L32 449.5C64 448 128 445 192 444.2C256 443.3 320 444.7 384 447.2C448 449.7 512 453.3 576 452.5C640 451.7 704 446.3 768 445.2C832 444 896 447 928 448.5L960 450L960 541L928 541C896 541 832 541 768 541C704 541 640 541 576 541C512 541 448 541 384 541C320 541 256 541 192 541C128 541 64 541 32 541L0 541Z" fill="#128ae5"></path><path d="M0 465L32 464C64 463 128 461 192 462.7C256 464.3 320 469.7 384 472C448 474.3 512 473.7 576 470.7C640 467.7 704 462.3 768 460.7C832 459 896 461 928 462L960 463L960 541L928 541C896 541 832 541 768 541C704 541 640 541 576 541C512 541 448 541 384 541C320 541 256 541 192 541C128 541 64 541 32 541L0 541Z" fill="#0780e0"></path><path d="M0 480L32 478.5C64 477 128 474 192 474C256 474 320 477 384 479C448 481 512 482 576 482.3C640 482.7 704 482.3 768 482.3C832 482.3 896 482.7 928 482.8L960 483L960 541L928 541C896 541 832 541 768 541C704 541 640 541 576 541C512 541 448 541 384 541C320 541 256 541 192 541C128 541 64 541 32 541L0 541Z" fill="#0675db"></path><path d="M0 491L32 490.7C64 490.3 128 489.7 192 491.5C256 493.3 320 497.7 384 499.3C448 501 512 500 576 498.8C640 497.7 704 496.3 768 495.5C832 494.7 896 494.3 928 494.2L960 494L960 541L928 541C896 541 832 541 768 541C704 541 640 541 576 541C512 541 448 541 384 541C320 541 256 541 192 541C128 541 64 541 32 541L0 541Z" fill="#0f6bd5"></path><path d="M0 505L32 506.2C64 507.3 128 509.7 192 509C256 508.3 320 504.7 384 505.3C448 506 512 511 576 512.3C640 513.7 704 511.3 768 510.8C832 510.3 896 511.7 928 512.3L960 513L960 541L928 541C896 541 832 541 768 541C704 541 640 541 576 541C512 541 448 541 384 541C320 541 256 541 192 541C128 541 64 541 32 541L0 541Z" fill="#1a60ce"></path><path d="M0 519L32 519.8C64 520.7 128 522.3 192 523.7C256 525 320 526 384 525.8C448 525.7 512 524.3 576 523.2C640 522 704 521 768 521.8C832 522.7 896 525.3 928 526.7L960 528L960 541L928 541C896 541 832 541 768 541C704 541 640 541 576 541C512 541 448 541 384 541C320 541 256 541 192 541C128 541 64 541 32 541L0 541Z" fill="#2455c7"></path></svg>