<svg id="visual" viewBox="0 0 960 540" width="960" height="540" xmlns="http://www.w3.org/2000/svg" xmlns:xlink="http://www.w3.org/1999/xlink" version="1.1"><rect x="0" y="0" width="960" height="540" fill="#001220"></rect><path d="M0 447L20 443.3C40 439.7 80 432.3 120 433.7C160 435 200 445 240 444C280 443 320 431 360 437.3C400 443.7 440 468.3 480 478.5C520 488.7 560 484.3 600 484.2C640 484 680 488 720 479.2C760 470.3 800 448.7 840 449.2C880 449.7 920 472.3 940 483.7L960 495L960 541L940 541C920 541 880 541 840 541C800 541 760 541 720 541C680 541 640 541 600 541C560 541 520 541 480 541C440 541 400 541 360 541C320 541 280 541 240 541C200 541 160 541 120 541C80 541 40 541 20 541L0 541Z" fill="#054b65" stroke-linecap="round" stroke-linejoin="miter"></path></svg>