<svg width="430" height="430" viewBox="0 0 430 430" fill="none" xmlns="http://www.w3.org/2000/svg">
<path d="M215 295C220.523 295 225 290.523 225 285C225 279.477 220.523 275 215 275C209.477 275 205 279.477 205 285C205 290.523 209.477 295 215 295Z" fill="url(#paint0_linear_2160_4156)"/>
<path fill-rule="evenodd" clip-rule="evenodd" d="M39 75C39 60.6406 50.6406 49 65 49H365C379.359 49 391 60.6406 391 75V295C391 309.359 379.359 321 365 321H251.521L255.521 369H285C288.314 369 291 371.686 291 375C291 378.314 288.314 381 285 381H250.04C250.009 381 249.977 381 249.946 381H180.054C180.022 381 179.991 381 179.959 381H145C141.686 381 139 378.314 139 375C139 371.686 141.686 369 145 369H174.479L178.479 321H65C50.6406 321 39 309.359 39 295V75ZM379 75V249H51V75C51 67.268 57.268 61 65 61H365C372.732 61 379 67.268 379 75ZM379 261H51V295C51 302.732 57.268 309 65 309H184.916C184.967 308.999 185.019 308.999 185.07 309H244.93C244.981 308.999 245.032 308.999 245.083 309H365C372.732 309 379 302.732 379 295V261ZM186.521 369H243.479L239.479 321H190.521L186.521 369Z" fill="url(#paint1_linear_2160_4156)"/>
<defs>
<linearGradient id="paint0_linear_2160_4156" x1="53.1913" y1="49" x2="392.863" y2="317.671" gradientUnits="userSpaceOnUse">
<stop stop-color="#CB5EEE"/>
<stop offset="1" stop-color="#4BE1EC"/>
</linearGradient>
<linearGradient id="paint1_linear_2160_4156" x1="53.1913" y1="49" x2="392.863" y2="317.671" gradientUnits="userSpaceOnUse">
<stop stop-color="#CB5EEE"/>
<stop offset="1" stop-color="#4BE1EC"/>
</linearGradient>
</defs>
</svg>
